<?xml version="1.0" encoding="UTF-8"?>
<svg version="1.1" xmlns="http://www.w3.org/2000/svg" width="450" height="112">
<path d="M0 0 C148.5 0 297 0 450 0 C450 36.96 450 73.92 450 112 C301.5 112 153 112 0 112 C0 75.04 0 38.08 0 0 Z " fill="transparent" transform="translate(0,0)"/>
<path d="M0 0 C6.6 0 13.2 0 20 0 C20.33 14.52 20.66 29.04 21 44 C30.95250613 34.21446635 30.95250613 34.21446635 40.1484375 24.0703125 C43.22118646 20.63453834 46.52959492 17.42991242 49.82666016 14.21044922 C51.96477839 12.10848778 53.95602507 10.05982175 55.734375 7.640625 C56.15203125 7.09921875 56.5696875 6.5578125 57 6 C57.66 6 58.32 6 59 6 C59.433125 5.071875 59.433125 5.071875 59.875 4.125 C61 2 61 2 63 0 C65.24658203 -0.22705078 65.24658203 -0.22705078 68.0078125 -0.1953125 C68.99394531 -0.18886719 69.98007813 -0.18242187 70.99609375 -0.17578125 C72.02863281 -0.15902344 73.06117187 -0.14226563 74.125 -0.125 C75.16527344 -0.11597656 76.20554687 -0.10695313 77.27734375 -0.09765625 C79.85179092 -0.07403747 82.42578212 -0.04110149 85 0 C83.51540666 1.73202557 82.03077865 3.46402113 80.54589844 5.19580078 C79.41703072 6.51328853 78.29000532 7.83235547 77.1640625 9.15234375 C73.59775156 13.28890238 69.85964755 17.16896241 65.96875 21 C63.45084396 23.5578728 61.13353196 26.26184809 58.796875 28.984375 C56.25654563 31.83396186 53.53890811 34.48633695 50.796875 37.140625 C48.96485292 39.03636959 47.35382266 40.73190749 46 43 C46.07416958 47.02988032 48.90463675 49.52529997 51.4375 52.4375 C55.07462745 56.67721295 58.57057011 60.98023607 61.9375 65.4375 C65.9039854 70.66763047 70.05577393 75.7091363 74.33374023 80.68725586 C81 88.44954204 81 88.44954204 81 91 C60.68284701 92.62477232 60.68284701 92.62477232 55.078125 89.23046875 C53.0900151 86.60089603 51.58509053 83.88937249 50 81 C48.23901856 78.72986072 46.33872 76.59055187 44.4375 74.4375 C40.13505341 69.40947319 35.99520566 64.27694399 32 59 C27.20416778 63.03518174 27.20416778 63.03518174 22.6875 67.375 C21 69 21 69 19 69 C19 76.26 19 83.52 19 91 C12.73 91 6.46 91 0 91 C0 60.97 0 30.94 0 0 Z " fill="#0453FD" transform="translate(1,12)"/>
<path d="M0 0 C0.83974365 0.00974854 1.6794873 0.01949707 2.54467773 0.02954102 C13.56569696 0.34333319 20.62165496 3.42136433 28.5859375 11.1328125 C36.30738498 19.35601469 38.24492528 26.53332015 38.05859375 37.74609375 C37.33427933 46.41036116 32.68268876 53.24889133 26.75 59.4375 C15.64916072 68.48835851 3.55151176 68.73046384 -10.25 67.4375 C-14.27218511 66.42843372 -17.01149656 64.98961542 -20.25 62.4375 C-21.03246094 61.87933594 -21.81492187 61.32117188 -22.62109375 60.74609375 C-29.25603505 55.52747818 -34.22033813 48.89839635 -35.57519531 40.39697266 C-36.49623076 31.10040254 -35.68667668 23.28343282 -30.25 15.4375 C-29.4146875 14.1071875 -29.4146875 14.1071875 -28.5625 12.75 C-20.47487696 4.66237696 -11.47643966 -0.14829818 0 0 Z " fill="#0655FD" transform="translate(118.25,36.5625)"/>
<path d="M0 0 C7.80933952 2.72243561 12.72403592 8.01706285 16.75 15.0625 C19.64129523 21.8570438 19.42684337 29.11512546 19.56982422 36.38989258 C19.60630447 37.82634287 19.66069843 39.26246143 19.73388672 40.69750977 C20.22029782 50.41564496 19.19178662 57.24931914 12.71240234 64.90600586 C8.81234489 67.91687829 5.87371583 67.97310306 1.08984375 67.421875 C0.05537109 67.21304688 0.05537109 67.21304688 -1 67 C-1.029729 65.17625854 -1.029729 65.17625854 -1.06005859 63.31567383 C-1.13624695 58.79609802 -1.22494405 54.2768386 -1.31738281 49.75756836 C-1.35561789 47.80320491 -1.39048027 45.84877241 -1.421875 43.89428711 C-1.46764435 41.08161778 -1.52561923 38.26942161 -1.5859375 35.45703125 C-1.59748871 34.58601273 -1.60903992 33.7149942 -1.62094116 32.81758118 C-1.7572342 27.1896736 -2.19146579 23.09111768 -6 18.6875 C-11.29693483 15.70797416 -16.7112442 16.50955233 -22.5 17.75 C-25.42185237 19.21092618 -25.95833404 19.96180761 -27 23 C-27.50539307 24.03290161 -27.50539307 24.03290161 -28.02099609 25.08666992 C-29.34330792 29.02161932 -29.35488722 32.67484049 -29.4140625 36.80078125 C-29.43342865 37.63715622 -29.4527948 38.47353119 -29.4727478 39.33525085 C-29.53230192 41.9942317 -29.57883174 44.6532564 -29.625 47.3125 C-29.66320206 49.12046109 -29.70225509 50.92840442 -29.7421875 52.73632812 C-29.83957814 57.15745716 -29.91933725 61.57840775 -30 66 C-36.27 66 -42.54 66 -49 66 C-49 44.55 -49 23.1 -49 1 C-43.06 1 -37.12 1 -31 1 C-30.67 2.98 -30.34 4.96 -30 7 C-29.30132812 6.57847656 -28.60265625 6.15695313 -27.8828125 5.72265625 C-26.97273438 5.17480469 -26.06265625 4.62695312 -25.125 4.0625 C-24.22007812 3.51722656 -23.31515625 2.97195312 -22.3828125 2.41015625 C-15.86208302 -1.44883284 -7.41440954 -0.92907835 0 0 Z " fill="#0655FD" transform="translate(255,37)"/>
<path d="M0 0 C-4.73787716 9.66960556 -11.6202637 18.31109963 -17.92993164 27.0012207 C-25.33455727 37.20004469 -32.5979409 47.49759396 -39.75 57.875 C-43.02251347 62.61692471 -46.31977597 67.32547265 -49.8515625 71.87890625 C-51.60259969 74.42268573 -52.84501297 76.69752865 -54.1484375 79.46484375 C-56.72017242 84.463289 -59.1037689 88.98587184 -64 92 C-73.42393864 94.11054832 -83.48038053 93.03903393 -93 92 C-90.16509208 86.79371177 -86.98513713 82.13195804 -83.375 77.4375 C-79.47157675 72.29777395 -75.61295944 67.13652333 -71.875 61.875 C-71.46854248 61.30289795 -71.06208496 60.7307959 -70.64331055 60.14135742 C-69.82986311 58.99468665 -69.01695143 57.84763562 -68.20458984 56.70019531 C-66.20556135 53.87870476 -64.19685403 51.0641424 -62.1875 48.25 C-61.78474854 47.68555176 -61.38199707 47.12110352 -60.96704102 46.53955078 C-57.43509753 41.59551638 -53.87423111 36.67259798 -50.3125 31.75 C-46.93467859 27.07895831 -43.55831976 22.40818829 -40.25 17.6875 C-39.70214844 16.95144531 -39.15429688 16.21539063 -38.58984375 15.45703125 C-36.84394025 12.92341972 -36.84394025 12.92341972 -35.56640625 9.51171875 C-29.01116505 -4.93798572 -13.56978298 -1.15322002 0 0 Z " fill="#FEBD09" transform="translate(373,11)"/>
<path d="M0 0 C6.27 0 12.54 0 19 0 C19 21.45 19 42.9 19 65 C12.73 65 6.46 65 0 65 C0 43.55 0 22.1 0 0 Z " fill="#0554FE" transform="translate(169,38)"/>
<path d="M0 0 C4.52861925 3.93436604 6.5405234 8.30473861 7.0390625 14.1875 C6.94917215 19.62087197 4.98572459 24.05515336 1.30078125 28.04296875 C-3.46671681 32.24378745 -7.76832824 33.99742748 -14.15234375 33.81640625 C-19.25300374 33.05553432 -23.13839213 30.6947846 -26.6484375 27 C-30.9026863 20.45500185 -30.94006799 15.4331199 -29.6484375 7.8125 C-27.39265559 2.37811631 -24.39532119 -0.61921809 -18.9609375 -2.875 C-11.54327423 -4.13223106 -6.36637684 -4.464073 0 0 Z " fill="#FCFDFE" transform="translate(428.2734375,8.5)"/>
<path d="M0 0 C4.46755506 2.53778276 7.10224606 5.64508558 8.8125 10.5 C9.8156776 17.10499231 9.4386906 23.05359866 6.0234375 28.87890625 C3.46140362 32.3087258 0.83401414 34.15949529 -3.1875 35.5 C-8.15610315 36.02166057 -12.04268979 36.0724051 -16.5625 33.8125 C-21.11076114 29.80569852 -23.87839996 26.57926242 -24.49609375 20.42578125 C-24.74772087 13.37259686 -24.80418935 8.34957693 -19.890625 2.98828125 C-13.88043584 -2.26374184 -7.23224419 -3.06451025 0 0 Z " fill="#FAFBFE" transform="translate(127.1875,53.5)"/>
<path d="M0 0 C4.01422236 0.61757267 6.82909453 2.53374019 10 5 C10.91015625 6.80859375 10.91015625 6.80859375 11 9 C9.515625 11.453125 9.515625 11.453125 7.25 14.25 C6.41604887 15.30475217 5.58549092 16.36219342 4.7578125 17.421875 C4.31211914 17.99099609 3.86642578 18.56011719 3.40722656 19.14648438 C0.85389971 22.50957553 -1.50281977 26.00793375 -3.875 29.5 C-4.78860569 30.84406063 -5.70264445 32.18782701 -6.6171875 33.53125 C-7.00503418 34.10423828 -7.39288086 34.67722656 -7.79248047 35.26757812 C-8.19096191 35.83927734 -8.58944336 36.41097656 -9 37 C-9.62442993 38.08522949 -9.62442993 38.08522949 -10.26147461 39.19238281 C-12 41 -12 41 -14.8190918 41.45410156 C-15.93453369 41.4331543 -17.04997559 41.41220703 -18.19921875 41.390625 C-19.40771484 41.37773438 -20.61621094 41.36484375 -21.86132812 41.3515625 C-23.12396484 41.31804687 -24.38660156 41.28453125 -25.6875 41.25 C-26.96173828 41.23195312 -28.23597656 41.21390625 -29.54882812 41.1953125 C-32.69996841 41.14810441 -35.8496114 41.08226384 -39 41 C-37.61222556 37.87734607 -35.99953492 35.74701311 -33.59179688 33.33300781 C-32.55061707 32.28237152 -32.55061707 32.28237152 -31.48840332 31.21051025 C-30.36492493 30.09310455 -30.36492493 30.09310455 -29.21875 28.953125 C-28.44946167 28.18192322 -27.68017334 27.41072144 -26.88757324 26.6161499 C-25.26263173 24.98984871 -23.63516701 23.36606524 -22.00537109 21.74462891 C-19.50254825 19.25253732 -17.01059437 16.74993408 -14.51953125 14.24609375 C-12.94074532 12.66862888 -11.36133939 11.09178423 -9.78125 9.515625 C-8.65777161 8.38607391 -8.65777161 8.38607391 -7.51159668 7.23370361 C-6.81747681 6.54588806 -6.12335693 5.85807251 -5.40820312 5.14941406 C-4.79690552 4.53970764 -4.18560791 3.93000122 -3.55578613 3.30181885 C-2 2 -2 2 0 2 C0 1.34 0 0.68 0 0 Z " fill="#FD7B02" transform="translate(321,62)"/>
<path d="M0 0 C3.98213069 -0.29911999 7.95984827 -0.51538307 11.95068359 -0.65917969 C13.96555198 -0.74847335 15.97729502 -0.90105682 17.98828125 -1.0546875 C21.98003615 -1.17504192 25.15662827 -1.10797897 29 0 C32.64665881 3.55141026 34.77208101 7.46233767 37 12 C37.56203125 12.87172852 38.1240625 13.74345703 38.703125 14.64160156 C40 17 40 17 40 21 C17.62679953 22.89871574 17.62679953 22.89871574 11.96582031 19.93505859 C8.60480995 16.92698669 6.83647795 13.04126054 5 9 C4.01392237 7.5998655 2.99893093 6.21890851 1.9375 4.875 C0 2 0 2 0 0 Z " fill="#FEC618" transform="translate(281,11)"/>
<path d="M0 0 C4.06212212 -0.14547545 8.12357287 -0.23413226 12.1875 -0.3125 C13.91323242 -0.3753418 13.91323242 -0.3753418 15.67382812 -0.43945312 C24.19130425 -0.56289481 24.19130425 -0.56289481 27.96875 2.06640625 C28.6390625 3.03449219 29.309375 4.00257812 30 5 C30.42901611 5.56356201 30.85803223 6.12712402 31.30004883 6.70776367 C32.6836874 8.52601453 34.00204407 10.37847478 35.3125 12.25 C35.76689453 12.88679688 36.22128906 13.52359375 36.68945312 14.1796875 C40 18.85925752 40 18.85925752 40 20 C14.05026739 22.53882614 14.05026739 22.53882614 7.59765625 18.49414062 C2.73221106 13.3618807 0 7.03471911 0 0 Z " fill="#F6970D" transform="translate(335,83)"/>
<path d="M0 0 C0.495 0.99 0.495 0.99 1 2 C-2.45402419 8.74412859 -7.24341032 14.64438218 -12.03125 20.47265625 C-14.69223521 23.88864321 -16.9277453 27.51429734 -19.20703125 31.19140625 C-23.39555185 37.75250933 -28.10969357 43.94946566 -33 50 C-36 47 -39 44 -42 41 C-38.87427529 37.84927872 -35.7450669 34.70206864 -32.61279297 31.55786133 C-31.55099139 30.49107703 -30.49009442 29.42339147 -29.43017578 28.35473633 C-24.01442573 22.89551708 -18.58990619 17.51169071 -12.73828125 12.51342773 C-10.03066013 10.15604805 -7.51422693 7.62276207 -5 5.0625 C-4.26716797 4.32290039 -4.26716797 4.32290039 -3.51953125 3.56835938 C-2.34396475 2.38126771 -1.17161174 1.19099502 0 0 Z " fill="#FEA504" transform="translate(365,20)"/>
<path d="M0 0 C3.89484887 0.82869125 5.39313761 2.64446119 7.9375 5.625 C8.2675 5.955 8.5975 6.285 8.9375 6.625 C9.07019204 11.12705132 8.57496334 15.38707782 5.9375 19.125 C2.0436952 22.36983733 -1.04775152 23.04365414 -6.0625 22.625 C-9.08586858 21.27413319 -10.73835394 19.94914606 -13.0625 17.625 C-13.5777954 13.84616707 -13.23635849 11.95265638 -11.4375 8.5625 C-8.12735849 4.4683776 -5.38197838 1.09836293 0 0 Z " fill="#0454FD" transform="translate(180.0625,10.375)"/>
<path d="M0 0 C4.52861925 3.93436604 6.5405234 8.30473861 7.0390625 14.1875 C6.94917215 19.62087197 4.98572459 24.05515336 1.30078125 28.04296875 C-3.46671681 32.24378745 -7.76832824 33.99742748 -14.15234375 33.81640625 C-19.25300374 33.05553432 -23.13839213 30.6947846 -26.6484375 27 C-30.9026863 20.45500185 -30.94006799 15.4331199 -29.6484375 7.8125 C-27.39265559 2.37811631 -24.39532119 -0.61921809 -18.9609375 -2.875 C-11.54327423 -4.13223106 -6.36637684 -4.464073 0 0 Z M-26.2109375 7.25 C-27.60559281 11.51600449 -28.19998119 15.06902896 -27.2734375 19.5 C-25.22382932 23.49673596 -22.73499736 26.55196117 -18.9609375 29 C-13.47486479 30.02066469 -9.06141523 30.37712115 -3.9609375 27.875 C-0.44839482 24.77089251 2.30774956 22.12111018 3.07421875 17.32421875 C3.26633578 12.35423476 2.65116654 8.65105089 -0.2734375 4.5 C-3.81633877 0.77995366 -7.12314175 -0.84279201 -12.2734375 -1.125 C-18.80572741 -0.76706631 -22.51951533 2.01056207 -26.2109375 7.25 Z " fill="#D4DAEE" transform="translate(428.2734375,8.5)"/>
<path d="M0 0 C4.95458671 0.67247884 9.18054487 2.69993865 13.6875 4.75 C14.88318604 5.28753906 14.88318604 5.28753906 16.10302734 5.8359375 C21.80724515 8.41600266 27.4505452 11.09978242 33 14 C33 14.33 33 14.66 33 15 C28.62641047 15.29121422 24.25530741 15.46824053 19.875 15.625 C18.6375 15.70878906 17.4 15.79257813 16.125 15.87890625 C12.50162261 15.97630887 9.50631953 15.93343453 6 15 C2.21947886 11.41026214 0.11304064 7.39952565 -0.13330078 2.17041016 C-0.06731689 1.09605713 -0.06731689 1.09605713 0 0 Z " fill="#FE8403" transform="translate(339,88)"/>
<path d="M0 0 C4.52123544 1.40272684 8.67502157 3.1869574 12.9296875 5.2578125 C13.56488312 5.56572723 14.20007874 5.87364197 14.85452271 6.19088745 C16.86303749 7.16549367 18.86903741 8.14515331 20.875 9.125 C22.24462801 9.79070141 23.61441815 10.45606933 24.984375 11.12109375 C28.32479994 12.74354458 31.66299047 14.37053387 35 16 C35 16.33 35 16.66 35 17 C13.28424992 18.74850916 13.28424992 18.74850916 8.06298828 15.96875 C5.03713896 13.19943336 3.48310895 9.75394977 2 6 C1.34 5.01 0.68 4.02 0 3 C0 2.01 0 1.02 0 0 Z " fill="#F69403" transform="translate(284,14)"/>
<path d="M0 0 C1.5675 -0.061875 3.135 -0.12375 4.75 -0.1875 C6.07257813 -0.23970703 6.07257813 -0.23970703 7.421875 -0.29296875 C10.49936255 0.05674574 11.81334556 0.8335456 14 3 C14.35996895 6.45570193 14.09991843 8.70024471 13 12 C13.88319294 15.15020361 13.88319294 15.15020361 15 18 C13.125 17.75 13.125 17.75 11 17 C10.690625 16.34 10.38125 15.68 10.0625 15 C9.711875 14.34 9.36125 13.68 9 13 C6.44480079 12.18828772 6.44480079 12.18828772 4 12 C4 13.98 4 15.96 4 18 C2.68 18 1.36 18 0 18 C0 12.06 0 6.12 0 0 Z " fill="#DEE2F2" transform="translate(409,14)"/>
<path d="M0 0 C4.5 5.625 4.5 5.625 6 9 C4.87749844 10.62672685 3.75191267 12.25132582 2.625 13.875 C1.68527344 15.23238281 1.68527344 15.23238281 0.7265625 16.6171875 C-1 19 -1 19 -3 21 C-6 18 -9 15 -12 12 C-8.04 8.04 -4.08 4.08 0 0 Z " fill="#FE9202" transform="translate(335,49)"/>
<path d="M0 0 C2.0625 1.4375 2.0625 1.4375 4 4 C4.48254375 8.54108132 3.61157581 12.73277915 1 16.5 C-2.79771221 19.66476018 -6.08466769 20.44182762 -11 20 C-11.99 19.34 -12.98 18.68 -14 18 C-13.38511719 17.81824219 -12.77023438 17.63648437 -12.13671875 17.44921875 C-11.32847656 17.19785156 -10.52023438 16.94648438 -9.6875 16.6875 C-8.48673828 16.32205078 -8.48673828 16.32205078 -7.26171875 15.94921875 C-3.96550372 14.56583317 -2.46377406 12.8787298 -0.8125 9.75 C0.17370306 6.41208197 0.13576677 3.46205275 0 0 Z " fill="#558CF9" transform="translate(185,13)"/>
<path d="M0 0 C0.66 0.33 1.32 0.66 2 1 C2 1.66 2 2.32 2 3 C2.598125 3.268125 3.19625 3.53625 3.8125 3.8125 C5.97224808 4.98493467 7.35790256 6.19369282 9 8 C7.68 9.65 6.36 11.3 5 13 C2 10 -1 7 -4 4 C-2.68 2.68 -1.36 1.36 0 0 Z " fill="#FE8D10" transform="translate(327,57)"/>
<path d="M0 0 C2.64 0 5.28 0 8 0 C8 0.33 8 0.66 8 1 C6.35 1 4.7 1 3 1 C3 3.31 3 5.62 3 8 C4.98 8 6.96 8 9 8 C8.67 8.66 8.34 9.32 8 10 C6.02 10 4.04 10 2 10 C2 11.98 2 13.96 2 16 C1.34 16 0.68 16 0 16 C0 10.72 0 5.44 0 0 Z " fill="#D3D9ED" transform="translate(410,15)"/>
<path d="M0 0 C1.98 0 3.96 0 6 0 C6.38218767 1.65614657 6.71395102 3.32457024 7 5 C6 6 6 6 2.9375 6.0625 C1.4834375 6.0315625 1.4834375 6.0315625 0 6 C0 4.02 0 2.04 0 0 Z " fill="#FCFCFD" transform="translate(413,17)"/>
<path d="M0 0 C0.66 1.32 1.32 2.64 2 4 C-0.52053595 5.26026798 -1.8542098 4.91874445 -4.625 4.5625 C-5.85089844 4.40974609 -5.85089844 4.40974609 -7.1015625 4.25390625 C-8.04128906 4.12822266 -8.04128906 4.12822266 -9 4 C-9 3.67 -9 3.34 -9 3 C-6.03 2.01 -3.06 1.02 0 0 Z " fill="#3F85F5" transform="translate(180,28)"/>
<path d="M0 0 C3.3 0.99 6.6 1.98 10 3 C9.34 3.66 8.68 4.32 8 5 C5.875 4.625 5.875 4.625 4 4 C3.01 5.485 3.01 5.485 2 7 C0 2.25 0 2.25 0 0 Z " fill="#FB931A" transform="translate(336,85)"/>
<path d="M0 0 C1.32 0.66 2.64 1.32 4 2 C2.35 3.32 0.7 4.64 -1 6 C-1.625 4.125 -1.625 4.125 -2 2 C-1.34 1.34 -0.68 0.68 0 0 Z " fill="#83CBF9" transform="translate(183,26)"/>
</svg>
